<svg id="Layer_1" data-name="Layer 1" xmlns="http://www.w3.org/2000/svg" xmlns:xlink="http://www.w3.org/1999/xlink" viewBox="0 0 210 65"><defs><clipPath id="clip-path"><path d="M32.52,59.1c-9.5,1.2-16.7.1-25-5.2a32.2,32.2,0,0,0,56.3-24c-2,14-16,27.1-31.3,29.2" fill="none"/></clipPath><linearGradient id="linear-gradient" x1="50.91" y1="-47.42" x2="51.91" y2="-47.42" gradientTransform="matrix(57.04, -1.89, 1.89, 57.04, -2807.2, 2849.86)" gradientUnits="userSpaceOnUse"><stop offset="0" stop-color="#d3712f"/><stop offset="0.2" stop-color="#d4752f"/><stop offset="0.4" stop-color="#d8812f"/><stop offset="0.6" stop-color="#df9430"/><stop offset="0.8" stop-color="#e8af31"/><stop offset="1" stop-color="#f4d232"/></linearGradient><clipPath id="clip-path-2"><path d="M22.62,1.4A32,32,0,0,0,1.92,20,33,33,0,0,1,31.62,6c14,.5,27.3,9.8,31.4,18.9A32.31,32.31,0,0,0,24.08,1c-.49.12-1,.25-1.46.39" fill="none"/></clipPath><linearGradient id="linear-gradient-2" x1="53.05" y1="-47.24" x2="54.05" y2="-47.24" gradientTransform="matrix(-60.21, 17.61, 17.61, 60.21, 4097.43, 1911.24)" gradientUnits="userSpaceOnUse"><stop offset="0" stop-color="#c73828"/><stop offset="0.3" stop-color="#c83b28"/><stop offset="0.5" stop-color="#c9452a"/><stop offset="0.7" stop-color="#cc542c"/><stop offset="0.8" stop-color="#d1652e"/><stop offset="1" stop-color="#dd9132"/><stop offset="1" stop-color="#e09c33"/></linearGradient><clipPath id="clip-path-3"><path d="M2.92,26.3A28.28,28.28,0,0,0,4.62,50c-2-7.4-1-17,7-26.8a31.61,31.61,0,0,1,29.5-10.4A28.7,28.7,0,0,0,2.92,26.4" fill="none"/></clipPath><linearGradient id="linear-gradient-3" x1="52.12" y1="-44.92" x2="53.12" y2="-44.92" gradientTransform="matrix(19.08, -44.72, -44.72, -19.08, -2991.9, 1526.19)" gradientUnits="userSpaceOnUse"><stop offset="0" stop-color="#1d4989"/><stop offset="0.4" stop-color="#1d4989"/><stop offset="0.7" stop-color="#407bb5"/><stop offset="0.9" stop-color="#589ed4"/><stop offset="1" stop-color="#589ed4"/></linearGradient></defs><title>logo-portal-newv2</title><g clip-path="url(#clip-path)"><path d="M6.42,29.8l58-1.8,1.2,37-58,1.9Z" fill="url(#linear-gradient)"/></g><g clip-path="url(#clip-path-2)"><path d="M58.22-16.2l-63,18.3L6.72,41.4l63-18.4Z" fill="url(#linear-gradient-2)"/></g><g clip-path="url(#clip-path-3)"><path d="M34.82,64.8,55.62,16,6.32-5l-20.8,48.8Z" fill="url(#linear-gradient-3)"/></g><path d="M74.52,15h1.2c5.9,5.7,8,10.5,8,10.5V15h1.8V29.7h-1.4s-3.5-7.2-7.6-11.2V29.8h-1.9V15Zm86,0h1.2c5.9,5.7,8,10.5,8,10.5V15h1.8V29.7h-1.4s-3.5-7.2-7.6-11.2V29.8h-1.9V15ZM88.82,25.7V15h8.3v1.6h-6.5v4.5h5.8v1.6h-5.8v3.1c0,1.6.8,2.3,2,2.3h4.5v1.6h-4.3c-2.6,0-4-1.3-4-4m11.3-10.8h4.4c4.4,0,6.5,2.1,6.5,6.2v2.1c0,3.9-1.8,6.5-6.2,6.5h-4.7V14.9Zm4.7,13.2c3.1,0,4.4-1.7,4.4-4.9V21.1c0-3.2-1.6-4.5-4.7-4.5H102V28.1Zm8.9-2.4V15H122v1.6h-6.4v4.5h5.8v1.6h-5.8v3.1c0,1.6.7,2.3,2,2.3H122v1.6h-4.3c-2.6,0-4-1.3-4-4M125,14.9h4.7c3.1,0,4.5,1.4,4.5,4.5a4,4,0,0,1-2.7,4.2,16.21,16.21,0,0,1,3.6,6h-1.9a15.21,15.21,0,0,0-3.5-5.4h-2.9v5.5h-1.7V14.8Zm4.3,7.6c2.3,0,3-1.3,3-3.1,0-2.2-.7-2.8-2.7-2.8h-2.8v6h2.5Zm8.1,3.2V15h1.9V25.8c0,1.6.7,2.3,2,2.3h3l-.5,1.6h-2.4c-2.6,0-4-1.4-4-4m8.7,3.8,1.6-6.1a69.91,69.91,0,0,1,3.2-8.4h2.5a56,56,0,0,1,3.2,8.4l1.7,6.1v.2h-1.8l-1-3.6h-6.7l-1,3.6h-1.7Zm9-5-.3-1.1a49.74,49.74,0,0,0-2.6-7,40.17,40.17,0,0,0-3,8h5.9Zm20.1-9.6h4.4c4.4,0,6.5,2.1,6.5,6.2v2.1c0,3.9-1.8,6.5-6.2,6.5h-4.8V14.8Zm4.7,13.2c3.1,0,4.4-1.7,4.4-4.9V21.1c0-3.2-1.6-4.5-4.7-4.5h-2.5V28.1Zm8.5,1.1V27.6h.2a16.84,16.84,0,0,0,3.6.6h.6c1.9,0,3.1-.7,3.1-2.5,0-1.6-.8-2.1-2.1-2.5l-2-.5a3.88,3.88,0,0,1-3.2-4c0-2.3,1.8-4,4.7-4h.5a10.09,10.09,0,0,1,3.3.7V17H197a10.13,10.13,0,0,0-3.2-.6h-.5c-1.8,0-3,.7-3,2.4,0,1.5,1,2,2.2,2.3l2,.5a3.73,3.73,0,0,1,3.2,4c0,2.6-1.8,4.2-4.9,4.2h-.6a16.2,16.2,0,0,1-3.8-.6m12.3-3.5V15h8.2v1.6h-6.4v4.5h5.8v1.6h-5.8v3.1c0,1.6.8,2.3,2,2.3h4.4v1.6h-4.3c-2.6,0-4-1.3-4-4M77.92,45.1V34.3h-3.4V45.8c0,2.6,1.4,4.1,3.9,4.1h5.5V47.1h-4.2c-1.5,0-1.8-.7-1.8-2m13.7-10.9c-4.7,0-7.2,2.6-7.2,7.5v.7c0,5,2.6,7.7,7.2,7.7s7.2-2.7,7.2-7.7v-.7c0-5-2.5-7.5-7.2-7.5m3.7,8.2c0,2-.4,4.9-3.7,4.9s-3.7-2.8-3.7-5v-.5c0-2.2.5-4.7,3.7-4.7s3.7,2.5,3.7,4.7v.6Zm8.8,7.5h3.3V37.2h4.3V34.4h-12v2.8H104Zm13.3-4.8V43.4h6V40.6h-6V37.2h6.7V34.3h-10V45.8c0,2.6,1.3,4.1,3.8,4.1h6.5V47.1h-5.3c-1.5,0-1.8-.7-1.8-2m19-.8-.1-.2.2-.1a4.83,4.83,0,0,0,2.5-4.5c0-3.6-1.8-5.1-5.9-5.1h-5.7V49.8h3.4V45.1h2.4c1.4.8,2.7,3.6,3,4.7h3.8a13.87,13.87,0,0,0-3.6-5.6m-4-1.8h-1.6V37.1h1.6c2,0,3,.3,3,2.5,0,2-.8,2.8-3,2.8m10.1-8h3.3V50h-3.3Zm10.7,10.4c0,1.6-.6,2.3-2,2.3h-2.3v2.8h2.5c3.5,0,5.2-1.7,5.2-5.1V34.4h-7v2.8h3.7v7.6Z" fill="#184077"/><g id="Layer_2" data-name="Layer 2"><path d="M41.54,32.33a1.37,1.37,0,0,1-1.3-1.5,1.35,1.35,0,0,1,1.4-1.3,1.4,1.4,0,0,1,0,2.8m-13-9.3c-.5.3-.2,4.9-.2,4.9L21.94,31c-2.6,1.4-5,3-5,3a1.86,1.86,0,0,1-1.3.2c-1.2-.7-4.3-5.6-5.1-5.2s1,3.6,1.1,7.1c.1,3.3-1.6,6.4-.5,7s4.3-5.3,4.7-5.4a1.07,1.07,0,0,1,.9,0l13.2,4.5c1.6.5-1.2,2.2-.5,3.1.3.4,1,.5,1.9,0a8.91,8.91,0,0,0,3.1-2.2c6-.2,12.1-.1,16.5-3.6l.2-.4c0-.2-.2-.2-.3-.2-3.2-1.3-7.1-2.5-10.3-4,7.8-.7,9.7-3.4,10.2-4.2l.2-.4-.2-.2a21.51,21.51,0,0,0-16.5-4c-1.3.3-2.6-.6-3.6-1.5S29,23,28.74,23" fill="#cd6325"/><path d="M29.24,24c0,.1.2,3.2,1,3.2l1-.3,1.2-.5L30.54,25l-1.1-1c0-.1-.2-.1-.2,0" fill="#fff" opacity="0.56"/><path d="M27.14,33.43a34.05,34.05,0,0,1-11.4,2.7c-.3-.7,5.3-4.4,9.8-6.4s9.8-2.7,10.2-2-4.1,4-8.6,5.7" fill="#fff" opacity="0.56"/></g></svg>